<svg width="98" height="254" viewBox="0 0 98 254" fill="none" xmlns="http://www.w3.org/2000/svg">
<path fill-rule="evenodd" clip-rule="evenodd" d="M26.0044 2.67976C18.945 5.00947 12.8197 10.34 9.34399 14.5526L8.57265 13.9162C12.1237 9.61232 18.3957 4.13768 25.691 1.73014C29.3462 0.523872 33.2724 0.0832981 37.2425 0.961587C41.2162 1.84065 45.1986 4.03321 48.9733 8.03632C56.6192 16.1447 55.2186 27.7231 50.5631 38.7014C50.4001 39.0858 50.233 39.4697 50.062 39.853C51.6917 39.7607 53.3253 39.7435 54.9436 39.8164C64.8978 40.2651 74.3702 44.1396 78.6858 55.0315C80.1931 58.6477 81.2162 64.0752 80.2966 70.0776C81.0835 70.7574 81.8509 71.4871 82.5888 72.2684C87.4857 77.4532 91.0737 84.901 90.5066 95.1332C91.9536 96.7815 93.102 98.545 93.9932 100.377C98.0445 108.708 96.7037 118.311 94.2477 124.597L94.234 124.632L94.2154 124.665C94.0183 125.007 93.8112 125.344 93.5945 125.674C94.5978 127.135 95.636 128.752 96.7194 130.544L96.7641 130.618L96.7814 130.703C97.8826 136.093 98.041 144.321 94.9051 151.496C94.3255 152.822 93.6338 154.11 92.8161 155.337C94.0645 160.231 94.502 166.483 92.5364 172.281C91.6019 175.038 90.1286 177.679 87.959 180.015C87.9866 180.111 88.0137 180.208 88.0403 180.305C89.2621 184.752 89.4206 189.481 87.802 194.19C86.1833 198.899 82.8019 203.545 77.0153 207.852L76.9577 207.895L76.8903 207.919C73.9617 209.003 69.1216 209.993 63.1508 209.969C63.2369 210.094 63.3222 210.219 63.4068 210.344C66.2009 214.476 68.1624 218.556 68.6795 222.286L68.681 222.296L68.6821 222.307C69.1057 226.799 68.7523 233.722 66.3028 239.917C63.8476 246.126 59.2606 251.653 51.2127 253.185L51.2062 253.186C47.1094 253.91 37.0091 253.845 29.229 247.765L29.0265 247.607L31.0435 199.48L29.0369 178.732V140.9L29.583 140.95C38.1661 141.746 51.671 141.851 64.2687 139.586C67.5671 138.992 70.7982 138.238 73.8591 137.292C70.8012 135.81 67.512 134.486 64.1183 133.311C55.2347 130.235 45.6725 128.19 37.7482 126.992C34.5222 127.542 31.6079 127.963 29.5913 128.107L6.9238 131.461L18.5545 113.764C15.4297 113.81 12.0539 113.478 9.07799 112.563C5.80085 111.555 2.93444 109.816 1.48741 107.019C0.0317962 104.205 0.0806922 100.456 2.34072 95.5913C4.59863 90.7311 9.08959 84.6928 16.6371 77.2199L16.6963 77.1614L16.7712 77.1251C21.5579 74.8097 29.7343 71.3148 38.7282 68.3445C47.7139 65.3769 57.5568 62.9188 65.6615 62.7039L65.7206 62.7024L65.7785 62.7147C69.5626 63.5173 74.7445 65.5936 79.3937 69.3256C80.1286 63.7573 79.1554 58.7552 77.761 55.4121L77.7576 55.4038C73.6403 45.0077 64.6266 41.2538 54.8986 40.8154C53.1414 40.7362 51.364 40.7657 49.5923 40.8838C44.8408 51.0981 37.4798 60.7487 31.9106 66.7379L31.8632 66.7889L31.8036 66.825C28.8598 68.609 24.3099 71.0229 20.229 72.458C18.1939 73.1737 16.2355 73.6605 14.6357 73.6839C13.0479 73.7071 11.6445 73.2672 11.0156 71.9334C9.72133 69.1882 8.67819 64.9134 10.6279 60.0889C12.5749 55.2711 17.4663 50.0059 27.82 45.1854L27.8268 45.1822L27.8337 45.1793C33.1525 42.8945 40.9414 40.5487 48.931 39.9289C49.1759 39.3908 49.4133 38.8513 49.6424 38.311C54.264 27.4127 55.4565 16.3693 48.2458 8.72238C44.5922 4.84781 40.7824 2.76886 37.0265 1.93798C33.2672 1.10633 29.5266 1.5174 26.0044 2.67976ZM48.4458 40.9725C40.7966 41.6448 33.3599 43.8946 28.2353 46.0951C18.0153 50.8547 13.372 55.9675 11.555 60.4636C9.74035 64.954 10.7049 68.9294 11.9201 71.507C12.2951 72.3023 13.1713 72.7052 14.6211 72.684C16.0588 72.663 17.8962 72.2184 19.8973 71.5146C23.8617 70.1205 28.3125 67.7667 31.2257 66.0059C36.6496 60.1633 43.76 50.8454 48.4458 40.9725ZM79.2187 70.4744C74.6184 66.6403 69.4 64.5154 65.6287 63.7052C57.683 63.9266 47.9773 66.343 39.0418 69.2941C30.1391 72.2343 22.0417 75.6913 17.2816 77.9891C9.80776 85.3974 5.428 91.3194 3.24762 96.0126C1.06361 100.714 1.11251 104.118 2.3756 106.559C3.64728 109.018 6.21827 110.637 9.37191 111.607C12.4881 112.565 16.101 112.865 19.3843 112.742L28.5909 108.697L28.0236 87.3382L28.3664 87.2171C29.6258 86.7719 31.7817 86.3764 34.405 86.0252C37.0423 85.6721 40.1949 85.3586 43.474 85.0877C50.0329 84.5458 57.1174 84.1728 61.6398 83.9952L61.6638 83.9942L61.6879 83.9956C65.4924 84.2125 68.9138 84.6699 71.9851 85.3311C74.8451 82.0656 76.7469 78.6629 77.94 75.3308C78.5277 73.6893 78.9444 72.0624 79.2187 70.4744ZM71.2082 86.1891C68.346 85.6053 65.1714 85.1969 61.6549 84.9954C57.1417 85.173 50.0857 85.5448 43.5563 86.0843C40.2855 86.3545 37.1516 86.6664 34.5377 87.0164C32.1534 87.3356 30.2364 87.6823 29.0427 88.0474L29.5797 108.262L54.4314 97.3439L54.4373 97.3414C61.9437 94.1572 67.3644 90.2983 71.2082 86.1891ZM28.6196 109.777L25.1658 111.294C26.2638 111.045 27.4264 110.795 28.6401 110.55L28.6196 109.777ZM29.6352 110.352L29.6084 109.342L54.8278 98.262C54.8289 98.2615 54.83 98.2611 54.8311 98.2606C62.7175 94.9147 68.3741 90.8164 72.3426 86.4333C80.4186 88.2648 85.8904 91.5416 89.483 95.4903C89.4344 96.2255 89.3639 96.9757 89.2703 97.741L89.2644 97.7893L89.2679 97.8379C89.4193 99.9243 88.0646 103.805 83.1301 108.318C81.6972 109.628 79.9668 110.988 77.8922 112.366C76.0492 111.779 74.1305 111.376 72.0672 110.999C71.3042 110.86 70.522 110.725 69.7155 110.585C67.3233 110.17 64.7183 109.719 61.7741 109.025C55.359 107.514 46.9417 107.834 39.0656 108.829C35.7773 109.245 32.5733 109.78 29.6352 110.352ZM28.6671 111.565C25.1638 112.276 22.0996 113.028 19.8138 113.668L8.98528 130.145L29.4826 127.112L29.5016 127.11C30.7994 127.019 32.4839 126.808 34.3911 126.521C32.6364 126.295 30.993 126.114 29.4916 125.978L29.0488 125.938L28.6671 111.565ZM40.7526 126.46C48.1088 127.703 56.5394 129.628 64.4455 132.366C68.2106 133.67 71.8633 135.16 75.2279 136.853C77.5108 136.091 79.6867 135.217 81.7108 134.218C86.182 132.012 89.889 129.208 92.3811 125.679C87.7924 119.127 84.0044 116 79.9977 114.227C79.3537 113.942 78.7023 113.692 78.0388 113.467C72.9298 116.797 65.8811 120.2 56.2919 123.294L56.2699 123.302L56.2473 123.307C52.6483 124.11 46.5043 125.408 40.7526 126.46ZM76.7926 113.078C75.2531 112.636 73.6366 112.302 71.8876 111.983C71.1395 111.847 70.3666 111.713 69.566 111.574C67.1678 111.158 64.521 110.7 61.5447 109.998C55.309 108.529 47.0371 108.83 39.191 109.822C35.8641 110.242 32.6239 110.785 29.6621 111.366L30.0249 125.023C32.3196 125.241 34.9252 125.557 37.7389 125.979C44.1483 124.881 51.7824 123.279 56.0068 122.336C65.0888 119.403 71.8384 116.204 76.7926 113.078ZM79.0758 112.774C79.5213 112.94 79.9631 113.118 80.4024 113.313C84.5622 115.153 88.4213 118.356 92.9757 124.787C93.0973 124.593 93.2154 124.397 93.3298 124.199C95.7168 118.065 96.9737 108.792 93.0939 100.815C92.3814 99.3498 91.493 97.9233 90.4015 96.5642C90.3639 96.9769 90.3197 97.3939 90.2687 97.8152C90.4275 100.346 88.809 104.479 83.805 109.056C82.4805 110.267 80.915 111.513 79.0758 112.774ZM92.9842 126.554C90.3729 130.117 86.5977 132.922 82.1533 135.115C80.3579 136.001 78.4498 136.789 76.4594 137.488C78.1739 138.396 79.8044 139.359 81.3259 140.379C86.1243 143.598 89.8755 147.412 91.7343 151.903L91.7371 151.909L91.7397 151.916C91.992 152.579 92.2337 153.29 92.4578 154.041C93.0404 153.089 93.5483 152.103 93.9888 151.095C97.002 144.201 96.8768 136.244 95.8187 130.987C94.8366 129.365 93.8943 127.892 92.9842 126.554ZM91.7336 155.151C91.4558 154.121 91.1418 153.157 90.8076 152.278C89.0516 148.042 85.4761 144.367 80.7689 141.21C79.0314 140.044 77.1447 138.953 75.1465 137.933C71.7447 139.043 68.1294 139.907 64.4457 140.57C54.1013 142.43 43.1662 142.705 34.7913 142.31C39.863 143.719 46.1541 145.676 52.3116 147.993C60.7587 151.171 69.0348 155.055 73.5321 159.169C75.1399 160.502 76.8611 162.129 78.55 163.992C84.7703 162.387 88.9698 159.124 91.7336 155.151ZM77.4365 164.257C75.9021 162.601 74.3474 161.143 72.8844 159.931L72.8749 159.923L72.8657 159.914C68.5272 155.941 60.4129 152.109 51.9595 148.929C43.8419 145.875 35.4859 143.448 30.0369 142.087V160.827C34.9293 163.104 49.9871 166.985 73.1587 164.903C74.676 164.766 76.1002 164.548 77.4365 164.257ZM30.0369 161.924C35.5278 164.31 50.5809 167.936 73.2482 165.899C75.019 165.74 76.6695 165.472 78.2066 165.107C81.7807 169.144 85.1391 174.226 86.8353 179.743C83.4039 183.238 78.2322 185.995 70.6435 187.258C65.9014 187.432 58.1728 187.192 50.3851 185.906C43.4837 184.766 36.6031 182.815 31.7038 179.652C31.1266 179.229 30.57 178.828 30.0369 178.449V161.924ZM30.1447 179.799L32.0194 199.184C42.3668 206.131 52.7664 208.572 61.1785 208.923C58.6479 205.486 55.5718 202.005 52.2685 198.646C45.1747 191.434 37.0631 184.82 31.1347 180.475C30.7957 180.255 30.4655 180.03 30.1447 179.799ZM36.2974 183.141C41.5012 187.228 47.5368 192.409 52.9814 197.945C56.5059 201.528 59.7902 205.268 62.4424 208.961C68.5691 209.07 73.5301 208.083 76.4762 207.006C82.0975 202.809 85.3203 198.333 86.8563 193.865C88.3653 189.475 88.2603 185.051 87.149 180.841C83.5626 184.307 78.2941 187.004 70.7756 188.25L70.7442 188.255L70.7124 188.256C65.9154 188.434 58.1018 188.194 50.2221 186.892C45.4044 186.097 40.5294 184.9 36.2974 183.141ZM61.9184 209.949C53.3468 209.716 42.6617 207.369 32.0068 200.375L30.0473 247.134C37.4964 252.821 47.1288 252.891 51.0292 252.202C58.6389 250.752 63.0017 245.546 65.3729 239.549C67.7481 233.542 68.0989 226.792 67.6875 222.412C67.1985 218.905 65.3339 214.979 62.5784 210.904C62.3636 210.587 62.1435 210.268 61.9184 209.949ZM87.6168 178.901C85.8793 173.607 82.6969 168.751 79.2922 164.829C85.1254 163.217 89.2327 160.161 92.049 156.42C93.1003 161.033 93.3692 166.71 91.5893 171.96C90.7601 174.406 89.4823 176.772 87.6168 178.901ZM89.5495 94.1049C85.8934 90.3967 80.5804 87.3623 73.09 85.5812C75.8333 82.3519 77.6932 78.9865 78.8815 75.6679C79.4168 74.1728 79.8151 72.6891 80.0964 71.2339C80.6999 71.7763 81.2901 72.3497 81.8618 72.9551C86.422 77.7833 89.829 84.6594 89.5495 94.1049Z" fill="#84829A"/>
</svg>
